<svg xmlns="http://www.w3.org/2000/svg" xmlns:xlink="http://www.w3.org/1999/xlink" width="500" zoomAndPan="magnify" viewBox="0 0 375 374.999991" height="500" preserveAspectRatio="xMidYMid meet" version="1.0"><path fill="#ffffff" d="M -32.269531 88.582031 C -35.5625 93.9375 2.734375 184.121094 9.324219 186.59375 C 18.382812 190.296875 24.972656 181.652344 34.855469 152.824219 C 40.207031 138 45.5625 125.234375 47.210938 124.410156 C 48.855469 123.175781 55.445312 136.351562 62.035156 153.238281 C 73.976562 182.0625 85.09375 194.003906 92.917969 184.945312 C 100.742188 175.886719 129.980469 91.464844 126.277344 87.757812 C 118.453125 79.933594 110.628906 88.996094 99.507812 119.46875 C 92.917969 136.765625 86.742188 150.765625 84.683594 150.765625 C 83.035156 150.765625 76.035156 137.175781 69.035156 120.703125 C 58.738281 96.40625 55.035156 91.054688 47.621094 91.054688 C 39.796875 91.054688 36.089844 96.40625 25.796875 124 L 13.441406 156.53125 L 7.675781 144.589844 C 4.792969 137.585938 -2.207031 121.527344 -7.972656 108.351562 C -17.445312 86.9375 -26.503906 79.113281 -32.269531 88.582031 Z M -32.269531 88.582031 " fill-opacity="1" fill-rule="nonzero"/><path fill="#ffffff" d="M 139.042969 157.355469 C 113.921875 190.710938 110.214844 197.710938 113.921875 204.710938 C 117.214844 210.890625 120.921875 212.535156 131.21875 210.476562 C 138.628906 209.242188 153.042969 206.769531 164.160156 204.710938 C 176.105469 202.652344 183.515625 202.652344 183.515625 205.125 C 183.515625 207.183594 175.28125 219.949219 164.984375 233.125 C 144.808594 259.070312 143.570312 262.777344 151.808594 269.777344 C 155.925781 273.070312 169.925781 271.835938 204.519531 266.070312 C 230.460938 261.539062 251.875 257.835938 252.699219 257.835938 C 253.113281 257.835938 253.523438 253.714844 253.523438 249.1875 C 253.523438 240.949219 251.875 240.539062 234.167969 243.007812 C 223.050781 244.65625 205.34375 247.128906 193.8125 248.363281 L 173.632812 250.835938 L 195.457031 223.65625 C 211.519531 203.476562 216.460938 194.003906 214.402344 187.828125 C 211.519531 178.355469 211.929688 178.355469 174.867188 184.121094 C 159.21875 187.003906 145.21875 187.828125 143.984375 186.59375 C 142.335938 185.355469 150.984375 172.179688 162.515625 157.765625 C 184.339844 130.175781 188.457031 117.820312 176.515625 117.820312 C 171.984375 117.820312 156.75 133.882812 139.042969 157.355469 Z M 139.042969 157.355469 " fill-opacity="1" fill-rule="nonzero"/><path fill="#ffffff" d="M 149.335938 297.78125 C 143.160156 303.546875 147.277344 313.015625 164.984375 334.84375 C 175.28125 347.195312 183.515625 358.726562 183.515625 360.375 C 183.515625 362.019531 168.691406 361.609375 150.160156 359.140625 C 122.980469 356.257812 115.980469 356.257812 113.097656 361.199219 C 111.039062 364.492188 110.214844 369.433594 111.449219 372.316406 C 115.570312 383.023438 169.101562 446.851562 174.457031 447.265625 C 187.222656 447.675781 183.105469 433.675781 161.691406 407.320312 C 148.925781 392.082031 140.277344 378.90625 142.335938 378.082031 C 144.808594 377.257812 159.632812 378.492188 175.691406 380.964844 C 197.519531 384.671875 206.578125 384.671875 210.695312 380.964844 C 219.34375 373.964844 218.109375 369.84375 200.8125 348.84375 C 169.925781 310.957031 170.339844 314.253906 195.871094 317.132812 C 208.226562 318.78125 226.757812 321.253906 236.226562 322.488281 C 253.523438 324.546875 254.347656 324.136719 252.699219 315.074219 C 251.464844 306.015625 248.582031 304.78125 214.402344 300.25 C 170.339844 294.484375 153.042969 294.074219 149.335938 297.78125 Z M 149.335938 297.78125 " fill-opacity="1" fill-rule="nonzero"/></svg>